<svg id="svg" version="1.1" xmlns="http://www.w3.org/2000/svg" xmlns:xlink="http://www.w3.org/1999/xlink" width="400" height="400" viewBox="0, 0, 400,400"><g id="svgg"><path id="path0" d="M86.800 113.449 C 86.800 113.957,89.396 118.400,89.692 118.400 C 89.862 118.400,90.000 118.589,90.000 118.819 C 90.000 119.050,92.205 122.931,94.900 127.444 C 97.595 131.957,100.161 136.313,100.603 137.125 L 101.407 138.600 126.403 138.826 C 151.938 139.056,154.795 139.220,160.382 140.768 C 163.540 141.644,168.372 143.520,169.200 144.191 C 169.530 144.459,170.070 144.782,170.400 144.910 C 174.167 146.362,179.483 153.347,180.497 158.176 C 181.368 162.324,180.801 172.159,179.622 173.338 C 179.390 173.570,179.200 174.101,179.200 174.518 C 179.200 174.935,178.942 175.754,178.627 176.338 C 178.313 176.922,177.640 178.277,177.132 179.349 C 176.624 180.421,175.982 181.386,175.705 181.492 C 175.427 181.598,175.200 181.839,175.200 182.026 C 175.200 182.493,172.513 185.193,170.770 186.479 C 164.833 190.858,160.868 191.589,143.200 191.558 C 137.590 191.548,132.763 191.553,132.474 191.570 C 131.952 191.600,134.631 197.054,135.844 198.431 C 136.150 198.779,136.400 199.204,136.400 199.376 C 136.400 199.548,137.300 201.179,138.400 203.000 C 139.500 204.821,140.400 206.511,140.400 206.756 C 140.400 207.000,140.562 207.200,140.761 207.200 C 140.959 207.200,141.325 207.695,141.573 208.300 C 141.822 208.905,142.244 209.760,142.512 210.200 C 142.781 210.640,143.990 212.710,145.200 214.800 C 146.410 216.890,147.617 218.960,147.883 219.400 C 148.148 219.840,148.534 220.560,148.740 221.000 C 148.946 221.440,150.718 224.501,152.677 227.803 C 154.637 231.105,156.368 234.075,156.524 234.403 C 156.681 234.731,157.161 235.540,157.592 236.200 C 158.022 236.860,158.704 238.030,159.108 238.800 C 159.743 240.014,165.752 250.323,166.802 252.000 C 167.008 252.330,167.647 253.500,168.220 254.600 C 168.794 255.700,169.483 256.870,169.751 257.200 C 170.020 257.530,170.591 258.520,171.020 259.400 C 171.449 260.280,171.924 261.094,172.075 261.208 C 172.226 261.323,172.544 261.863,172.781 262.408 C 173.018 262.954,173.569 263.940,174.005 264.600 C 174.441 265.260,174.997 266.299,175.241 266.908 C 175.485 267.518,176.011 268.192,176.411 268.406 C 177.175 268.815,291.834 268.999,292.853 268.593 C 293.381 268.382,296.010 264.643,297.162 262.463 C 297.471 261.878,297.876 261.340,298.062 261.267 C 298.248 261.193,298.400 260.873,298.400 260.554 C 298.400 260.236,298.670 259.871,299.000 259.745 C 299.330 259.618,299.600 259.318,299.600 259.078 C 299.600 258.695,301.808 255.139,304.047 251.916 C 304.461 251.320,304.800 250.639,304.800 250.404 C 304.800 250.168,305.070 249.871,305.400 249.745 C 305.730 249.618,306.000 249.369,306.000 249.192 C 306.000 249.015,306.622 247.925,307.383 246.770 C 308.144 245.614,308.672 244.516,308.556 244.329 C 308.441 244.142,282.160 243.997,250.155 244.007 C 218.149 244.016,191.780 243.911,191.557 243.773 C 191.333 243.635,190.982 243.135,190.776 242.661 C 190.317 241.605,189.566 240.415,188.900 239.688 C 188.625 239.388,188.400 238.957,188.400 238.729 C 188.400 238.502,187.860 237.516,187.200 236.538 C 186.540 235.560,186.000 234.666,186.000 234.552 C 186.000 234.438,185.505 233.589,184.900 232.665 C 183.172 230.029,182.813 229.442,182.534 228.800 C 182.261 228.170,179.494 223.505,178.306 221.671 C 177.924 221.082,177.447 220.240,177.246 219.800 C 177.045 219.360,176.414 218.320,175.845 217.490 C 173.726 214.397,173.983 213.830,178.800 210.993 C 183.326 208.327,187.115 205.119,191.818 199.971 C 193.632 197.986,196.916 193.718,197.335 192.800 C 197.486 192.470,197.964 191.660,198.398 191.000 C 199.293 189.640,200.000 188.128,200.000 187.574 C 200.000 187.368,200.180 187.200,200.400 187.200 C 200.620 187.200,200.800 186.972,200.800 186.694 C 200.800 186.416,201.125 185.561,201.522 184.794 C 201.920 184.027,202.541 182.410,202.903 181.200 C 203.265 179.990,203.884 177.920,204.278 176.600 C 205.348 173.014,205.328 157.505,204.247 153.200 C 203.222 149.116,201.291 143.367,200.363 141.636 C 199.944 140.853,199.600 139.984,199.600 139.706 C 199.600 139.428,199.461 139.200,199.291 139.200 C 199.121 139.200,198.626 138.534,198.191 137.719 C 192.109 126.333,175.919 116.301,159.600 113.806 C 155.679 113.207,86.800 112.869,86.800 113.449 M196.006 113.500 C 196.018 114.071,196.612 114.646,199.200 116.590 C 201.994 118.688,202.089 118.779,205.946 123.000 C 209.085 126.435,209.880 127.358,211.462 129.400 C 212.879 131.230,216.400 137.090,216.400 137.619 C 216.400 137.813,216.748 138.158,217.174 138.386 C 218.091 138.877,294.318 138.967,295.087 138.478 C 295.354 138.308,296.004 137.366,296.530 136.385 C 297.056 135.403,298.079 133.520,298.804 132.200 C 300.886 128.410,303.056 124.373,304.180 122.200 C 304.749 121.100,305.420 119.840,305.670 119.400 C 306.669 117.648,306.816 117.368,307.176 116.539 C 307.382 116.065,307.742 115.560,307.975 115.415 C 308.209 115.271,308.400 114.713,308.400 114.176 L 308.400 113.200 252.200 113.200 C 221.290 113.200,196.003 113.335,196.006 113.500 M129.817 282.772 C 129.521 283.251,130.274 283.725,130.807 283.396 C 131.254 283.119,130.960 282.400,130.400 282.400 C 130.206 282.400,129.944 282.568,129.817 282.772 M186.428 283.500 C 186.494 285.141,187.143 285.839,187.172 284.300 C 187.187 283.475,187.020 282.800,186.800 282.800 C 186.580 282.800,186.413 283.115,186.428 283.500 M209.301 286.600 C 209.305 287.480,209.387 287.793,209.483 287.295 C 209.579 286.798,209.575 286.078,209.475 285.695 C 209.375 285.313,209.296 285.720,209.301 286.600 M211.900 289.482 C 212.395 289.578,213.205 289.578,213.700 289.482 C 214.195 289.387,213.790 289.309,212.800 289.309 C 211.810 289.309,211.405 289.387,211.900 289.482 M267.705 289.487 C 268.314 289.579,269.214 289.577,269.705 289.482 C 270.197 289.387,269.700 289.311,268.600 289.314 C 267.500 289.317,267.097 289.395,267.705 289.487 M271.300 289.476 C 271.685 289.576,272.315 289.576,272.700 289.476 C 273.085 289.375,272.770 289.293,272.000 289.293 C 271.230 289.293,270.915 289.375,271.300 289.476 M249.911 290.693 C 250.851 290.778,252.291 290.777,253.111 290.691 C 253.930 290.605,253.160 290.536,251.400 290.537 C 249.640 290.539,248.970 290.609,249.911 290.693 M299.700 290.676 C 300.085 290.776,300.715 290.776,301.100 290.676 C 301.485 290.575,301.170 290.493,300.400 290.493 C 299.630 290.493,299.315 290.575,299.700 290.676 M303.305 290.687 C 303.914 290.779,304.814 290.777,305.305 290.682 C 305.797 290.587,305.300 290.511,304.200 290.514 C 303.100 290.517,302.697 290.595,303.305 290.687 M174.006 292.500 C 174.003 293.105,174.180 293.600,174.400 293.600 C 174.906 293.600,174.906 292.783,174.400 292.000 C 174.098 291.532,174.011 291.643,174.006 292.500 " stroke="none" fill="#2b2b5c" fill-rule="evenodd"></path><path id="path1" d="M0.000 200.000 L 0.000 400.000 200.000 400.000 L 400.000 400.000 400.000 200.000 L 400.000 0.000 200.000 0.000 L 0.000 0.000 0.000 200.000 M161.800 112.943 C 175.706 116.475,184.919 121.239,192.414 128.772 C 196.438 132.817,200.348 138.601,202.168 143.200 C 202.560 144.190,203.133 145.591,203.440 146.314 C 203.748 147.036,204.000 147.960,204.000 148.368 C 204.000 148.775,204.269 149.624,204.598 150.254 C 204.926 150.884,205.196 151.928,205.198 152.574 C 205.199 153.220,205.478 154.858,205.818 156.214 C 207.071 161.209,206.264 174.339,204.331 180.400 C 201.428 189.503,194.045 200.389,186.654 206.464 C 181.834 210.426,180.226 211.600,179.616 211.600 C 179.387 211.600,179.200 211.739,179.200 211.908 C 179.200 212.078,178.390 212.659,177.400 213.200 C 175.463 214.258,175.285 214.802,176.329 216.475 C 179.243 221.143,181.600 225.210,181.600 225.569 C 181.600 225.806,181.751 226.000,181.935 226.000 C 182.119 226.000,182.763 226.945,183.366 228.100 C 183.970 229.255,184.764 230.684,185.132 231.275 C 188.162 236.147,190.400 240.010,190.400 240.369 C 190.400 240.606,190.535 240.801,190.700 240.803 C 190.865 240.804,191.306 241.343,191.681 242.001 L 192.361 243.197 251.081 243.299 L 309.800 243.400 309.928 244.300 C 309.998 244.795,309.863 245.200,309.628 245.200 C 309.393 245.200,309.200 245.361,309.200 245.557 C 309.200 245.754,307.490 248.473,305.400 251.600 C 303.310 254.727,301.600 257.364,301.600 257.459 C 301.600 257.634,299.971 260.029,299.600 260.400 C 299.490 260.510,299.181 260.960,298.913 261.400 C 298.645 261.840,297.835 263.160,297.113 264.334 C 296.391 265.508,295.600 266.820,295.356 267.249 C 295.111 267.679,294.495 268.473,293.986 269.015 L 293.061 270.000 234.826 270.000 L 176.592 270.000 175.496 268.984 C 174.893 268.425,174.400 267.798,174.400 267.591 C 174.400 267.384,173.680 266.038,172.800 264.600 C 171.920 263.162,171.200 261.879,171.200 261.749 C 171.200 261.618,170.300 260.021,169.200 258.200 C 168.100 256.379,167.200 254.787,167.200 254.662 C 167.200 254.538,166.732 253.753,166.160 252.918 C 165.588 252.083,164.958 251.040,164.761 250.600 C 164.563 250.160,164.233 249.530,164.027 249.200 C 162.041 246.020,158.400 239.599,158.400 239.276 C 158.400 239.051,158.248 238.807,158.062 238.733 C 157.876 238.660,157.471 238.109,157.162 237.510 C 156.853 236.910,155.385 234.421,153.900 231.979 C 152.415 229.536,151.200 227.441,151.200 227.324 C 151.200 227.207,150.300 225.621,149.200 223.800 C 148.100 221.979,147.200 220.360,147.200 220.202 C 147.200 220.045,146.660 219.116,146.000 218.138 C 145.340 217.160,144.800 216.281,144.800 216.185 C 144.800 216.089,143.630 214.039,142.200 211.630 C 140.770 209.221,139.600 207.168,139.600 207.069 C 139.600 206.969,137.959 204.123,135.953 200.744 C 133.947 197.365,132.147 194.240,131.954 193.800 C 131.760 193.360,131.377 192.685,131.103 192.300 C 129.723 190.364,130.657 190.190,141.644 190.327 C 147.230 190.396,154.320 190.265,157.400 190.034 C 162.593 189.646,163.853 189.355,166.400 187.952 C 166.730 187.771,167.630 187.308,168.400 186.924 C 178.484 181.900,183.416 162.626,177.113 152.880 C 176.501 151.934,176.000 151.070,176.000 150.961 C 176.000 150.761,175.060 149.850,172.944 148.000 C 168.546 144.155,160.755 141.243,152.600 140.396 C 150.840 140.213,138.690 140.043,125.600 140.018 C 99.385 139.969,100.717 140.096,99.599 137.540 C 99.373 137.023,98.833 136.060,98.400 135.400 C 97.967 134.740,97.430 133.840,97.207 133.400 C 96.984 132.960,96.624 132.330,96.407 132.000 C 95.283 130.295,86.107 114.493,85.867 113.849 C 85.136 111.892,83.969 111.948,122.767 112.095 C 155.898 112.220,159.240 112.292,161.800 112.943 M309.780 112.851 C 310.174 113.212,309.644 114.403,306.956 119.200 C 306.155 120.630,304.507 123.690,303.293 126.000 C 302.080 128.310,300.933 130.260,300.744 130.333 C 300.555 130.407,300.400 130.776,300.400 131.153 C 300.400 131.531,300.225 132.015,300.010 132.230 C 299.796 132.444,298.884 134.055,297.984 135.810 C 297.084 137.564,296.055 139.225,295.698 139.500 C 294.761 140.220,217.704 140.207,216.762 139.487 C 216.412 139.219,215.445 137.740,214.614 136.200 C 211.147 129.771,202.217 119.597,196.893 116.009 C 194.227 114.213,193.176 112.935,194.083 112.593 C 194.690 112.364,305.440 112.128,307.800 112.351 C 308.680 112.434,309.571 112.659,309.780 112.851 M289.986 178.792 C 290.749 179.201,290.557 181.406,289.609 183.114 C 289.202 183.847,289.056 184.186,285.175 193.400 C 283.785 196.700,282.436 199.670,282.178 200.000 C 281.919 200.330,281.597 201.066,281.462 201.635 C 281.328 202.204,280.840 203.150,280.378 203.737 L 279.539 204.804 244.313 204.702 C 204.319 204.586,207.274 204.871,209.507 201.351 C 212.214 197.084,215.900 189.330,218.230 183.000 C 218.635 181.900,219.307 180.415,219.723 179.700 L 220.479 178.400 254.866 178.400 C 276.572 178.400,289.523 178.545,289.986 178.792 M90.237 280.571 C 90.685 280.885,91.388 281.920,91.798 282.871 C 92.209 283.822,93.142 285.909,93.872 287.509 C 94.603 289.109,95.200 290.594,95.200 290.809 C 95.200 291.923,96.162 290.929,97.048 288.900 C 97.600 287.635,98.384 285.880,98.789 285.000 C 99.194 284.120,99.643 283.000,99.787 282.510 C 100.219 281.034,102.228 279.867,103.878 280.135 C 106.721 280.596,106.832 280.921,106.709 288.370 L 106.600 295.000 105.000 295.000 L 103.400 295.000 103.287 290.250 C 103.175 285.555,103.165 285.508,102.387 286.212 C 101.954 286.604,101.600 287.161,101.600 287.450 C 101.600 287.739,101.269 288.656,100.865 289.488 C 100.460 290.319,99.695 291.900,99.165 293.000 L 98.200 295.000 95.978 295.118 C 94.236 295.210,93.624 295.080,93.144 294.518 C 92.498 293.760,89.600 287.157,89.600 286.443 C 89.600 286.213,89.330 286.129,89.000 286.255 C 88.523 286.438,88.400 287.289,88.400 290.394 C 88.400 294.710,88.090 295.354,86.124 295.129 L 85.000 295.000 85.000 288.012 L 85.000 281.024 86.000 280.518 C 87.332 279.844,89.233 279.868,90.237 280.571 M111.608 280.900 C 112.167 281.500,112.426 282.267,112.384 283.200 C 112.031 291.176,112.410 291.765,117.746 291.531 C 122.637 291.317,122.400 291.599,122.400 286.005 C 122.400 280.982,122.728 280.000,124.406 280.000 C 125.967 280.000,126.400 281.458,126.400 286.709 C 126.400 294.742,125.924 295.202,117.611 295.195 C 108.645 295.186,108.683 295.220,108.462 287.156 C 108.270 280.185,109.207 278.324,111.608 280.900 M141.800 280.830 C 145.820 282.263,146.525 291.277,142.873 294.543 C 142.031 295.296,130.846 295.649,128.765 294.989 C 127.691 294.648,127.590 282.364,128.649 280.852 C 129.424 279.744,138.712 279.729,141.800 280.830 M156.200 280.748 C 158.493 282.172,165.004 295.105,163.500 295.247 C 161.582 295.429,160.026 294.844,159.776 293.846 C 159.251 291.756,151.287 291.768,149.369 293.861 C 147.133 296.303,143.848 295.667,145.352 293.083 C 146.211 291.607,148.396 287.597,150.083 284.400 C 152.205 280.381,153.940 279.345,156.200 280.748 M184.920 280.413 C 188.313 281.040,189.705 283.576,188.322 286.611 C 187.952 287.423,187.952 287.831,188.322 288.424 C 189.170 289.781,188.919 293.017,187.872 294.234 L 186.944 295.313 179.972 295.346 C 176.137 295.364,172.775 295.238,172.500 295.066 C 171.832 294.648,171.790 281.926,172.453 280.864 C 172.983 280.015,181.163 279.718,184.920 280.413 M205.658 281.081 C 207.533 282.960,205.968 283.778,200.074 284.000 C 196.029 284.152,194.684 284.338,194.411 284.781 C 193.755 285.845,194.411 286.000,199.575 286.000 C 205.098 286.000,205.791 286.242,205.531 288.078 C 205.403 288.981,205.291 289.002,200.108 289.112 C 195.300 289.213,194.777 289.296,194.391 290.017 C 193.906 290.923,193.933 290.938,197.000 291.484 C 198.100 291.680,200.222 291.736,201.715 291.610 C 205.541 291.285,207.974 294.034,204.830 295.130 C 203.451 295.610,193.348 295.299,192.301 294.744 C 188.718 292.843,189.231 282.379,192.975 281.019 C 196.313 279.806,204.425 279.846,205.658 281.081 M221.831 280.984 C 224.202 282.537,224.683 287.505,222.645 289.394 C 221.356 290.588,221.349 290.461,222.800 292.463 C 225.438 296.106,221.514 296.812,218.701 293.202 C 216.231 290.030,211.200 290.029,211.200 293.200 C 211.200 295.398,208.696 296.367,207.506 294.629 C 207.071 293.994,207.137 281.665,207.579 280.839 C 208.105 279.856,220.299 279.980,221.831 280.984 M228.577 280.889 C 228.950 281.421,229.200 282.626,229.200 283.889 L 229.200 286.000 230.811 286.000 C 232.301 286.000,235.964 283.121,235.993 281.927 C 236.013 281.146,238.474 279.953,239.570 280.193 C 241.104 280.530,240.785 281.732,238.246 285.180 C 236.447 287.624,236.077 288.400,236.710 288.400 C 236.881 288.400,237.905 289.570,238.985 291.000 C 241.460 294.277,241.578 294.262,243.538 290.427 C 247.376 282.916,248.639 280.964,250.030 280.388 C 252.072 279.542,253.717 280.795,255.885 284.848 C 256.872 286.692,258.196 289.050,258.829 290.089 C 259.462 291.128,260.094 292.433,260.233 292.989 C 260.373 293.545,260.692 294.006,260.943 294.013 C 261.195 294.021,260.992 294.367,260.493 294.783 C 259.766 295.390,259.334 295.468,258.321 295.177 C 257.121 294.833,256.867 294.616,256.017 293.200 C 255.733 292.727,254.758 292.600,251.417 292.600 L 247.177 292.600 246.158 293.901 C 245.206 295.119,244.990 295.199,242.815 295.150 C 241.536 295.121,240.297 295.216,240.062 295.361 C 239.194 295.898,236.914 294.463,235.435 292.448 C 232.096 287.899,229.200 287.953,229.200 292.564 C 229.200 294.999,228.466 295.604,226.200 295.036 L 225.200 294.785 225.200 288.124 C 225.200 282.487,225.302 281.351,225.862 280.731 C 226.753 279.747,227.821 279.809,228.577 280.889 M276.909 281.057 C 278.005 281.623,278.119 281.609,278.663 280.831 C 279.844 279.145,282.217 280.698,285.200 285.111 C 287.026 287.813,286.859 287.896,291.234 282.100 C 292.331 280.646,293.099 280.000,293.729 280.000 C 295.551 280.000,296.208 281.792,294.875 283.125 C 291.897 286.103,289.074 290.586,288.842 292.709 C 288.419 296.560,285.110 296.451,284.882 292.577 C 284.779 290.826,284.440 290.135,282.182 287.082 C 280.762 285.161,279.600 283.412,279.600 283.195 C 279.600 282.978,279.330 282.800,279.000 282.800 C 278.530 282.800,278.400 283.349,278.400 285.344 C 278.400 287.416,278.209 288.169,277.373 289.401 L 276.347 290.914 277.573 292.623 C 279.028 294.648,279.028 294.650,277.980 295.210 C 276.649 295.923,274.531 294.992,273.398 293.197 C 272.163 291.241,272.027 291.168,269.292 291.003 C 266.626 290.842,266.000 291.219,266.000 292.987 C 266.000 294.782,264.750 295.877,263.288 295.364 L 262.200 294.982 262.090 288.436 C 261.939 279.470,261.436 280.029,269.452 280.265 C 273.983 280.399,276.065 280.620,276.909 281.057 M303.919 280.679 C 305.152 281.387,305.871 282.520,309.019 288.709 C 310.056 290.749,311.061 292.514,311.252 292.632 C 311.821 292.984,311.647 295.096,311.030 295.333 C 310.047 295.710,307.662 294.827,307.396 293.987 C 306.727 291.879,298.777 291.815,297.019 293.904 C 296.179 294.903,295.614 295.200,294.552 295.200 C 292.496 295.200,292.489 294.379,294.514 290.484 C 299.851 280.216,301.008 279.009,303.919 280.679 M211.591 283.933 C 211.037 284.122,211.105 286.545,211.680 287.120 C 212.714 288.154,219.549 287.742,219.828 286.629 C 220.390 284.392,219.900 284.065,215.773 283.927 C 213.688 283.857,211.806 283.860,211.591 283.933 M132.566 284.455 C 132.004 285.364,131.874 290.366,132.396 290.995 C 133.074 291.812,139.105 291.850,140.207 291.044 C 141.241 290.288,141.147 285.353,140.084 284.545 C 139.209 283.880,132.968 283.805,132.566 284.455 M176.140 284.613 C 175.696 285.769,176.607 286.032,180.635 285.915 C 184.295 285.809,184.600 285.738,184.600 285.000 C 184.600 283.896,176.556 283.527,176.140 284.613 M266.150 284.587 C 265.429 286.465,266.532 287.395,269.627 287.519 C 274.180 287.703,275.542 286.933,274.408 284.815 C 273.841 283.756,266.546 283.555,266.150 284.587 M153.500 286.226 C 152.348 288.541,152.539 289.070,154.637 289.385 C 157.211 289.771,157.429 289.040,155.614 286.100 C 154.608 284.469,154.367 284.483,153.500 286.226 M249.900 286.741 C 248.858 289.005,248.959 289.200,251.167 289.200 C 253.504 289.200,253.768 288.767,252.697 286.700 C 251.708 284.792,250.791 284.805,249.900 286.741 M301.100 286.435 C 299.941 288.471,300.152 289.201,301.900 289.194 C 304.307 289.184,304.627 288.783,303.772 286.846 C 302.907 284.885,302.057 284.754,301.100 286.435 M176.186 290.016 C 175.199 291.106,176.482 291.600,180.297 291.600 C 183.812 291.600,185.366 290.964,184.475 289.891 C 183.694 288.949,177.061 289.049,176.186 290.016 " stroke="none" fill="#fbfbfb" fill-rule="evenodd"></path><path id="path2" d="M220.062 180.700 C 219.648 181.525,218.449 184.360,217.400 187.000 C 215.302 192.276,211.413 200.255,210.837 200.466 C 210.635 200.540,210.410 201.219,210.335 201.976 C 210.133 204.028,209.894 204.015,246.315 203.902 L 279.347 203.800 280.447 201.800 C 282.180 198.650,289.600 181.430,289.600 180.559 C 289.600 179.261,288.014 179.200,254.434 179.200 L 220.816 179.200 220.062 180.700 " stroke="none" fill="#86b64d" fill-rule="evenodd"></path><path id="path3" d="M86.400 113.398 C 86.400 113.727,88.686 117.822,91.480 122.498 C 94.274 127.174,96.897 131.630,97.309 132.400 C 97.721 133.170,98.404 134.340,98.828 135.000 C 99.251 135.660,99.798 136.700,100.042 137.312 C 100.956 139.599,100.559 139.565,126.638 139.591 C 156.362 139.620,157.969 139.772,166.508 143.380 C 188.119 152.511,183.932 185.858,160.600 190.434 C 158.583 190.830,154.165 190.986,144.800 190.992 C 137.650 190.996,131.685 191.159,131.544 191.352 C 131.403 191.546,132.461 193.706,133.895 196.152 C 135.329 198.599,138.260 203.660,140.410 207.400 C 142.559 211.140,144.684 214.830,145.131 215.600 C 145.578 216.370,147.160 219.160,148.646 221.800 C 151.075 226.114,161.837 244.511,162.803 246.000 C 163.018 246.330,163.627 247.410,164.157 248.400 C 164.687 249.390,166.488 252.507,168.160 255.327 C 169.832 258.147,171.200 260.527,171.200 260.615 C 171.200 260.703,172.100 262.299,173.200 264.162 C 174.300 266.024,175.200 267.701,175.200 267.888 C 175.200 269.636,173.947 269.600,234.931 269.600 L 292.339 269.600 293.569 268.564 C 294.246 267.995,294.800 267.363,294.800 267.160 C 294.800 266.958,295.430 265.895,296.200 264.800 C 296.970 263.705,297.600 262.697,297.600 262.562 C 297.600 262.426,298.140 261.633,298.800 260.800 C 299.460 259.967,300.000 259.189,300.000 259.072 C 300.000 258.866,301.257 256.919,306.659 248.762 C 309.379 244.654,309.548 244.219,308.567 243.843 C 308.219 243.709,281.871 243.600,250.016 243.600 C 204.165 243.600,192.013 243.496,191.691 243.100 C 190.922 242.155,175.263 215.627,175.016 214.852 C 174.817 214.223,175.248 213.788,177.285 212.562 C 185.018 207.905,192.322 201.001,197.215 193.722 C 198.747 191.444,200.000 189.437,200.000 189.263 C 200.000 189.089,200.532 187.906,201.182 186.635 C 203.099 182.887,203.955 180.046,205.569 172.069 C 206.684 166.562,205.666 155.527,203.356 148.079 C 197.669 129.737,182.844 117.911,159.669 113.230 C 155.969 112.483,86.400 112.642,86.400 113.398 M194.806 113.100 C 194.819 113.710,195.466 114.391,197.068 115.481 C 202.358 119.081,210.498 128.031,214.092 134.200 C 214.477 134.860,215.180 136.119,215.654 136.999 C 216.129 137.878,216.806 138.817,217.158 139.086 C 218.090 139.796,294.318 139.797,295.219 139.087 C 295.559 138.819,296.623 137.160,297.583 135.400 C 298.543 133.640,299.730 131.480,300.219 130.600 C 300.709 129.720,301.914 127.470,302.896 125.600 C 305.365 120.902,307.529 116.936,308.434 115.451 C 310.210 112.538,315.789 112.800,252.000 112.800 C 220.540 112.800,194.803 112.935,194.806 113.100 M159.600 113.806 C 175.919 116.301,192.109 126.333,198.191 137.719 C 198.626 138.534,199.121 139.200,199.291 139.200 C 199.461 139.200,199.600 139.428,199.600 139.706 C 199.600 139.984,199.944 140.853,200.363 141.636 C 201.291 143.367,203.222 149.116,204.247 153.200 C 205.328 157.505,205.348 173.014,204.278 176.600 C 203.884 177.920,203.265 179.990,202.903 181.200 C 202.541 182.410,201.920 184.027,201.522 184.794 C 201.125 185.561,200.800 186.416,200.800 186.694 C 200.800 186.972,200.620 187.200,200.400 187.200 C 200.180 187.200,200.000 187.368,200.000 187.574 C 200.000 188.128,199.293 189.640,198.398 191.000 C 197.964 191.660,197.486 192.470,197.335 192.800 C 196.916 193.718,193.632 197.986,191.818 199.971 C 187.115 205.119,183.326 208.327,178.800 210.993 C 173.983 213.830,173.726 214.397,175.845 217.490 C 176.414 218.320,177.045 219.360,177.246 219.800 C 177.447 220.240,177.924 221.082,178.306 221.671 C 179.494 223.505,182.261 228.170,182.534 228.800 C 182.813 229.442,183.172 230.029,184.900 232.665 C 185.505 233.589,186.000 234.438,186.000 234.552 C 186.000 234.666,186.540 235.560,187.200 236.538 C 187.860 237.516,188.400 238.502,188.400 238.729 C 188.400 238.957,188.625 239.388,188.900 239.688 C 189.566 240.415,190.317 241.605,190.776 242.661 C 190.982 243.135,191.333 243.635,191.557 243.773 C 191.780 243.911,218.149 244.016,250.155 244.007 C 282.160 243.997,308.441 244.142,308.556 244.329 C 308.672 244.516,308.144 245.614,307.383 246.770 C 306.622 247.925,306.000 249.015,306.000 249.192 C 306.000 249.369,305.730 249.618,305.400 249.745 C 305.070 249.871,304.800 250.168,304.800 250.404 C 304.800 250.639,304.461 251.320,304.047 251.916 C 301.808 255.139,299.600 258.695,299.600 259.078 C 299.600 259.318,299.330 259.618,299.000 259.745 C 298.670 259.871,298.400 260.236,298.400 260.554 C 298.400 260.873,298.248 261.193,298.062 261.267 C 297.876 261.340,297.471 261.878,297.162 262.463 C 296.010 264.643,293.381 268.382,292.853 268.593 C 291.834 268.999,177.175 268.815,176.411 268.406 C 176.011 268.192,175.485 267.518,175.241 266.908 C 174.997 266.299,174.441 265.260,174.005 264.600 C 173.569 263.940,173.018 262.954,172.781 262.408 C 172.544 261.863,172.226 261.323,172.075 261.208 C 171.924 261.094,171.449 260.280,171.020 259.400 C 170.591 258.520,170.020 257.530,169.751 257.200 C 169.483 256.870,168.794 255.700,168.220 254.600 C 167.647 253.500,167.008 252.330,166.802 252.000 C 165.752 250.323,159.743 240.014,159.108 238.800 C 158.704 238.030,158.022 236.860,157.592 236.200 C 157.161 235.540,156.681 234.731,156.524 234.403 C 156.368 234.075,154.637 231.105,152.677 227.803 C 150.718 224.501,148.946 221.440,148.740 221.000 C 148.534 220.560,148.148 219.840,147.883 219.400 C 147.617 218.960,146.410 216.890,145.200 214.800 C 143.990 212.710,142.781 210.640,142.512 210.200 C 142.244 209.760,141.822 208.905,141.573 208.300 C 141.325 207.695,140.959 207.200,140.761 207.200 C 140.562 207.200,140.400 207.000,140.400 206.756 C 140.400 206.511,139.500 204.821,138.400 203.000 C 137.300 201.179,136.400 199.548,136.400 199.376 C 136.400 199.204,136.150 198.779,135.844 198.431 C 134.631 197.054,131.952 191.600,132.474 191.570 C 132.763 191.553,137.590 191.548,143.200 191.558 C 160.868 191.589,164.833 190.858,170.770 186.479 C 172.513 185.193,175.200 182.493,175.200 182.026 C 175.200 181.839,175.427 181.598,175.705 181.492 C 175.982 181.386,176.624 180.421,177.132 179.349 C 177.640 178.277,178.313 176.922,178.627 176.338 C 178.942 175.754,179.200 174.935,179.200 174.518 C 179.200 174.101,179.390 173.570,179.622 173.338 C 180.801 172.159,181.368 162.324,180.497 158.176 C 179.483 153.347,174.167 146.362,170.400 144.910 C 170.070 144.782,169.530 144.459,169.200 144.191 C 168.372 143.520,163.540 141.644,160.382 140.768 C 154.795 139.220,151.938 139.056,126.403 138.826 L 101.407 138.600 100.603 137.125 C 100.161 136.313,97.595 131.957,94.900 127.444 C 92.205 122.931,90.000 119.050,90.000 118.819 C 90.000 118.589,89.862 118.400,89.692 118.400 C 89.396 118.400,86.800 113.957,86.800 113.449 C 86.800 112.869,155.679 113.207,159.600 113.806 M308.400 114.176 C 308.400 114.713,308.209 115.271,307.975 115.415 C 307.742 115.560,307.382 116.065,307.176 116.539 C 306.816 117.368,306.669 117.648,305.670 119.400 C 305.420 119.840,304.749 121.100,304.180 122.200 C 303.056 124.373,300.886 128.410,298.804 132.200 C 298.079 133.520,297.056 135.403,296.530 136.385 C 296.004 137.366,295.354 138.308,295.087 138.478 C 294.318 138.967,218.091 138.877,217.174 138.386 C 216.748 138.158,216.400 137.813,216.400 137.619 C 216.400 137.090,212.879 131.230,211.462 129.400 C 209.880 127.358,209.085 126.435,205.946 123.000 C 202.089 118.779,201.994 118.688,199.200 116.590 C 196.612 114.646,196.018 114.071,196.006 113.500 C 196.003 113.335,221.290 113.200,252.200 113.200 L 308.400 113.200 308.400 114.176 M109.900 281.098 C 108.956 281.314,108.851 290.966,109.773 292.749 C 111.238 295.581,123.264 295.671,124.768 292.860 C 125.378 291.720,125.522 282.162,124.937 281.577 C 123.506 280.146,122.989 281.435,123.128 286.096 C 123.310 292.213,123.356 292.161,117.680 292.334 C 111.661 292.518,111.090 291.821,111.242 284.471 C 111.305 281.419,111.071 280.830,109.900 281.098 M173.446 281.131 C 172.853 281.248,172.793 281.981,172.890 287.931 L 173.000 294.600 179.200 294.699 C 187.519 294.833,189.495 293.552,187.740 289.166 C 187.230 287.891,187.189 287.342,187.547 286.557 C 188.592 284.263,187.749 281.723,185.839 281.411 C 184.357 281.169,174.393 280.944,173.446 281.131 M226.432 281.362 C 226.126 281.730,226.015 283.968,226.090 288.253 L 226.200 294.600 227.200 294.600 C 228.056 294.600,228.215 294.399,228.304 293.200 C 228.610 289.082,229.217 288.380,232.125 288.787 C 233.410 288.966,233.976 289.403,235.725 291.564 C 238.082 294.476,238.810 295.035,239.763 294.670 C 240.623 294.340,240.165 293.410,237.738 290.557 C 235.560 287.997,235.567 287.301,237.800 284.400 C 238.790 283.113,239.600 281.867,239.600 281.630 C 239.600 280.905,237.639 281.153,236.964 281.964 C 234.543 284.875,232.406 286.805,231.557 286.847 C 229.065 286.971,228.400 286.273,228.400 283.538 C 228.400 281.424,227.346 280.260,226.432 281.362 M300.637 281.642 C 300.048 282.105,299.259 283.083,298.883 283.814 C 298.252 285.044,297.650 286.187,294.636 291.884 C 292.947 295.075,294.438 296.079,296.695 293.271 L 297.924 291.741 302.093 291.820 C 306.477 291.902,307.782 292.282,308.200 293.599 C 308.477 294.473,310.246 295.114,310.814 294.546 C 311.130 294.230,309.817 290.943,309.157 290.400 C 309.023 290.290,308.482 289.300,307.954 288.200 C 305.350 282.777,303.705 280.800,301.794 280.800 C 301.747 280.800,301.226 281.179,300.637 281.642 M85.614 281.974 C 85.341 282.485,85.220 284.986,85.289 288.694 L 85.400 294.600 86.400 294.600 L 87.400 294.600 87.505 289.600 C 87.649 282.714,88.474 281.792,90.296 286.480 C 94.118 296.315,96.480 297.624,99.177 291.400 C 99.654 290.300,100.214 289.040,100.421 288.600 C 100.629 288.160,101.038 287.090,101.331 286.223 C 101.882 284.595,102.922 283.590,103.481 284.146 C 103.656 284.320,103.890 286.744,104.000 289.532 C 104.187 294.267,104.253 294.600,105.000 294.600 C 106.001 294.600,106.487 282.156,105.511 281.536 C 103.987 280.569,100.400 281.581,100.400 282.978 C 100.400 283.151,99.769 284.640,98.997 286.288 C 98.226 287.935,97.489 289.701,97.361 290.212 C 96.643 293.074,94.602 292.338,93.578 288.848 C 93.345 288.052,92.489 286.050,91.677 284.400 L 90.200 281.400 88.125 281.280 C 86.376 281.179,85.981 281.288,85.614 281.974 M128.990 281.682 C 128.874 281.985,128.828 285.016,128.889 288.417 L 129.000 294.600 135.269 294.600 C 141.248 294.600,141.582 294.558,142.510 293.686 C 144.927 291.413,145.043 284.231,142.697 282.106 C 141.645 281.153,129.339 280.772,128.990 281.682 M152.501 282.100 C 151.465 283.211,146.000 293.388,146.000 294.206 C 146.000 295.255,147.843 294.900,148.624 293.700 C 149.762 291.951,150.445 291.626,153.000 291.616 C 158.003 291.597,159.504 291.971,160.379 293.455 C 160.925 294.379,161.469 294.800,162.120 294.800 C 163.517 294.800,163.674 294.418,162.845 293.039 C 161.973 291.586,158.571 285.243,157.542 283.148 C 156.464 280.956,154.037 280.452,152.501 282.100 M193.200 281.711 C 191.404 282.609,190.734 284.568,190.897 288.449 C 191.138 294.202,192.194 294.907,200.290 294.713 L 205.000 294.600 205.000 293.600 L 205.000 292.600 200.245 292.510 C 194.948 292.409,193.600 291.936,193.600 290.178 C 193.600 288.888,193.681 288.868,199.600 288.705 C 204.252 288.577,204.600 288.513,204.600 287.784 C 204.600 287.054,204.228 286.986,199.200 286.800 L 193.800 286.600 193.680 285.566 C 193.482 283.863,194.282 283.589,199.518 283.571 C 204.517 283.553,205.596 283.209,205.057 281.805 C 204.752 281.010,194.762 280.931,193.200 281.711 M208.000 287.747 C 208.000 294.171,208.023 294.353,208.870 294.622 C 209.960 294.968,210.923 293.808,210.670 292.453 C 210.098 289.389,217.306 289.124,218.864 292.152 C 219.706 293.788,220.930 294.800,222.070 294.800 C 223.477 294.800,223.469 294.584,221.989 292.629 C 220.556 290.735,220.539 290.461,221.786 289.279 C 223.421 287.728,223.624 284.082,222.181 282.200 C 221.617 281.465,221.014 281.390,214.784 281.274 L 208.000 281.147 208.000 287.747 M249.103 282.127 C 248.606 282.664,247.610 284.250,246.889 285.651 C 246.168 287.053,244.872 289.536,244.008 291.168 C 243.144 292.801,242.529 294.286,242.642 294.468 C 243.097 295.204,244.268 294.719,245.459 293.300 L 246.719 291.800 251.205 291.800 L 255.691 291.800 257.018 293.335 C 257.864 294.313,258.609 294.815,259.072 294.718 C 260.429 294.437,259.992 293.401,254.629 284.200 C 252.700 280.891,250.880 280.209,249.103 282.127 M262.977 281.717 C 262.346 283.361,263.015 294.593,263.752 294.734 C 264.696 294.916,265.186 294.166,265.194 292.529 C 265.203 290.609,266.073 289.998,268.726 290.047 C 270.908 290.087,273.600 291.167,273.600 292.002 C 273.600 292.830,275.737 294.800,276.636 294.800 C 277.908 294.800,277.853 294.082,276.437 292.182 L 275.273 290.622 276.479 289.249 C 277.935 287.591,278.014 283.562,276.620 282.023 C 275.699 281.004,263.356 280.727,262.977 281.717 M279.200 281.414 C 279.200 281.760,280.437 283.587,282.948 286.945 C 284.848 289.488,285.346 290.476,285.549 292.102 C 285.997 295.692,288.400 295.704,288.400 292.117 C 288.400 290.631,288.688 289.954,290.124 288.066 C 294.405 282.440,294.800 281.840,294.449 281.489 C 293.664 280.704,292.524 281.537,290.186 284.603 C 287.223 288.487,286.852 288.601,285.158 286.138 C 282.527 282.314,279.200 279.676,279.200 281.414 M130.983 282.772 C 131.279 283.251,130.526 283.725,129.993 283.396 C 129.546 283.119,129.840 282.400,130.400 282.400 C 130.594 282.400,130.856 282.568,130.983 282.772 M187.172 284.300 C 187.149 285.503,187.076 285.642,186.800 285.000 C 186.322 283.888,186.322 282.800,186.800 282.800 C 187.020 282.800,187.187 283.475,187.172 284.300 M219.896 283.680 C 220.537 284.212,220.554 287.286,219.920 287.920 C 219.134 288.706,212.039 288.560,211.131 287.738 C 210.134 286.835,210.141 284.227,211.144 283.523 C 212.034 282.897,219.106 283.024,219.896 283.680 M138.071 283.596 C 141.192 283.602,141.600 284.089,141.600 287.813 C 141.600 292.017,141.127 292.400,135.939 292.400 C 131.219 292.400,131.200 292.380,131.200 287.413 C 131.200 283.528,131.602 283.025,134.400 283.402 C 135.170 283.506,136.822 283.593,138.071 283.596 M185.243 284.070 C 185.576 284.608,185.199 286.113,184.635 286.494 C 183.853 287.022,176.613 286.844,175.838 286.278 C 174.443 285.257,175.160 283.831,177.200 283.567 C 179.722 283.242,184.932 283.567,185.243 284.070 M274.720 283.680 C 275.409 284.369,275.312 287.031,274.571 287.771 C 274.090 288.253,273.069 288.400,270.200 288.400 C 265.888 288.400,265.200 288.022,265.200 285.651 C 265.200 283.418,265.645 283.200,270.200 283.200 C 272.809 283.200,274.410 283.370,274.720 283.680 M304.203 286.080 C 305.854 289.368,305.531 290.000,302.200 290.000 C 298.822 290.000,298.738 289.828,300.381 286.242 C 301.826 283.086,302.681 283.050,304.203 286.080 M156.013 285.100 C 156.229 285.705,156.674 286.678,157.003 287.262 C 158.302 289.571,157.929 290.000,154.624 290.000 C 150.966 290.000,150.931 289.946,152.489 286.660 C 153.933 283.615,155.271 283.023,156.013 285.100 M253.258 286.200 C 255.122 289.542,254.660 290.184,250.577 289.925 C 248.103 289.768,247.905 289.120,249.419 286.128 C 250.814 283.370,251.689 283.386,253.258 286.200 M209.483 287.295 C 209.387 287.793,209.305 287.480,209.301 286.600 C 209.296 285.720,209.375 285.313,209.475 285.695 C 209.575 286.078,209.579 286.798,209.483 287.295 M185.153 289.685 C 186.020 292.029,185.063 292.487,179.648 292.317 C 175.488 292.187,174.490 291.596,175.225 289.700 C 175.763 288.314,184.641 288.301,185.153 289.685 M213.700 289.482 C 213.205 289.578,212.395 289.578,211.900 289.482 C 211.405 289.387,211.810 289.309,212.800 289.309 C 213.790 289.309,214.195 289.387,213.700 289.482 M269.705 289.482 C 269.214 289.577,268.314 289.579,267.705 289.487 C 267.097 289.395,267.500 289.317,268.600 289.314 C 269.700 289.311,270.197 289.387,269.705 289.482 M272.700 289.476 C 272.315 289.576,271.685 289.576,271.300 289.476 C 270.915 289.375,271.230 289.293,272.000 289.293 C 272.770 289.293,273.085 289.375,272.700 289.476 M253.111 290.691 C 252.291 290.777,250.851 290.778,249.911 290.693 C 248.970 290.609,249.640 290.539,251.400 290.537 C 253.160 290.536,253.930 290.605,253.111 290.691 M301.100 290.676 C 300.715 290.776,300.085 290.776,299.700 290.676 C 299.315 290.575,299.630 290.493,300.400 290.493 C 301.170 290.493,301.485 290.575,301.100 290.676 M305.305 290.682 C 304.814 290.777,303.914 290.779,303.305 290.687 C 302.697 290.595,303.100 290.517,304.200 290.514 C 305.300 290.511,305.797 290.587,305.305 290.682 M174.794 293.100 C 174.797 293.375,174.620 293.600,174.400 293.600 C 174.180 293.600,174.003 293.105,174.006 292.500 C 174.012 291.374,174.780 291.958,174.794 293.100 " stroke="none" fill="#7c7c8c" fill-rule="evenodd"></path><path id="path4" d="M86.060 112.528 C 85.799 112.842,85.712 113.436,85.867 113.849 C 86.107 114.493,95.283 130.295,96.407 132.000 C 96.624 132.330,96.984 132.960,97.207 133.400 C 97.430 133.840,97.967 134.740,98.400 135.400 C 98.833 136.060,99.373 137.023,99.599 137.540 C 100.717 140.096,99.385 139.969,125.600 140.018 C 138.690 140.043,150.840 140.213,152.600 140.396 C 160.755 141.243,168.546 144.155,172.944 148.000 C 175.060 149.850,176.000 150.761,176.000 150.961 C 176.000 151.070,176.501 151.934,177.113 152.880 C 183.416 162.626,178.484 181.900,168.400 186.924 C 167.630 187.308,166.730 187.771,166.400 187.952 C 163.853 189.355,162.593 189.646,157.400 190.034 C 154.320 190.265,147.230 190.396,141.644 190.327 C 130.657 190.190,129.723 190.364,131.103 192.300 C 131.377 192.685,131.760 193.360,131.954 193.800 C 132.147 194.240,133.947 197.365,135.953 200.744 C 137.959 204.123,139.600 206.969,139.600 207.069 C 139.600 207.168,140.770 209.221,142.200 211.630 C 143.630 214.039,144.800 216.089,144.800 216.185 C 144.800 216.281,145.340 217.160,146.000 218.138 C 146.660 219.116,147.200 220.045,147.200 220.202 C 147.200 220.360,148.100 221.979,149.200 223.800 C 150.300 225.621,151.200 227.207,151.200 227.324 C 151.200 227.441,152.415 229.536,153.900 231.979 C 155.385 234.421,156.853 236.910,157.162 237.510 C 157.471 238.109,157.876 238.660,158.062 238.733 C 158.248 238.807,158.400 239.051,158.400 239.276 C 158.400 239.599,162.041 246.020,164.027 249.200 C 164.233 249.530,164.563 250.160,164.761 250.600 C 164.958 251.040,165.588 252.083,166.160 252.918 C 166.732 253.753,167.200 254.538,167.200 254.662 C 167.200 254.787,168.100 256.379,169.200 258.200 C 170.300 260.021,171.200 261.618,171.200 261.749 C 171.200 261.879,171.920 263.162,172.800 264.600 C 173.680 266.038,174.400 267.384,174.400 267.591 C 174.400 267.798,174.893 268.425,175.496 268.984 L 176.592 270.000 234.826 270.000 L 293.061 270.000 293.986 269.015 C 294.495 268.473,295.111 267.679,295.356 267.249 C 295.600 266.820,296.391 265.508,297.113 264.334 C 297.835 263.160,298.645 261.840,298.913 261.400 C 299.181 260.960,299.490 260.510,299.600 260.400 C 299.971 260.029,301.600 257.634,301.600 257.459 C 301.600 257.364,303.310 254.727,305.400 251.600 C 307.490 248.473,309.200 245.754,309.200 245.557 C 309.200 245.361,309.393 245.200,309.628 245.200 C 309.863 245.200,309.998 244.795,309.928 244.300 L 309.800 243.400 251.081 243.299 L 192.361 243.197 191.681 242.001 C 191.306 241.343,190.865 240.804,190.700 240.803 C 190.535 240.801,190.400 240.606,190.400 240.369 C 190.400 240.010,188.162 236.147,185.132 231.275 C 184.764 230.684,183.970 229.255,183.366 228.100 C 182.763 226.945,182.119 226.000,181.935 226.000 C 181.751 226.000,181.600 225.806,181.600 225.569 C 181.600 225.210,179.243 221.143,176.329 216.475 C 175.285 214.802,175.463 214.258,177.400 213.200 C 178.390 212.659,179.200 212.078,179.200 211.908 C 179.200 211.739,179.387 211.600,179.616 211.600 C 180.226 211.600,181.834 210.426,186.654 206.464 C 194.045 200.389,201.428 189.503,204.331 180.400 C 206.264 174.339,207.071 161.209,205.818 156.214 C 205.478 154.858,205.199 153.220,205.198 152.574 C 205.196 151.928,204.926 150.884,204.598 150.254 C 204.269 149.624,204.000 148.775,204.000 148.368 C 204.000 147.960,203.748 147.036,203.440 146.314 C 203.133 145.591,202.560 144.190,202.168 143.200 C 196.951 130.017,183.527 119.040,166.800 114.280 C 159.177 112.111,161.827 112.242,122.767 112.095 C 91.761 111.977,86.465 112.040,86.060 112.528 M250.400 112.299 C 219.710 112.353,194.367 112.485,194.083 112.593 C 193.176 112.935,194.227 114.213,196.893 116.009 C 202.217 119.597,211.147 129.771,214.614 136.200 C 215.445 137.740,216.412 139.219,216.762 139.487 C 217.704 140.207,294.761 140.220,295.698 139.500 C 296.055 139.225,297.084 137.564,297.984 135.810 C 298.884 134.055,299.796 132.444,300.010 132.230 C 300.225 132.015,300.400 131.531,300.400 131.153 C 300.400 130.776,300.555 130.407,300.744 130.333 C 300.933 130.260,302.080 128.310,303.293 126.000 C 304.507 123.690,306.155 120.630,306.956 119.200 C 310.613 112.674,310.620 112.618,307.800 112.351 C 306.920 112.268,281.090 112.244,250.400 112.299 M159.669 113.230 C 182.844 117.911,197.669 129.737,203.356 148.079 C 205.666 155.527,206.684 166.562,205.569 172.069 C 203.955 180.046,203.099 182.887,201.182 186.635 C 200.532 187.906,200.000 189.089,200.000 189.263 C 200.000 189.437,198.747 191.444,197.215 193.722 C 192.322 201.001,185.018 207.905,177.285 212.562 C 175.248 213.788,174.817 214.223,175.016 214.852 C 175.263 215.627,190.922 242.155,191.691 243.100 C 192.013 243.496,204.165 243.600,250.016 243.600 C 281.871 243.600,308.219 243.709,308.567 243.843 C 309.548 244.219,309.379 244.654,306.659 248.762 C 301.257 256.919,300.000 258.866,300.000 259.072 C 300.000 259.189,299.460 259.967,298.800 260.800 C 298.140 261.633,297.600 262.426,297.600 262.562 C 297.600 262.697,296.970 263.705,296.200 264.800 C 295.430 265.895,294.800 266.958,294.800 267.160 C 294.800 267.363,294.246 267.995,293.569 268.564 L 292.339 269.600 234.931 269.600 C 173.947 269.600,175.200 269.636,175.200 267.888 C 175.200 267.701,174.300 266.024,173.200 264.162 C 172.100 262.299,171.200 260.703,171.200 260.615 C 171.200 260.527,169.832 258.147,168.160 255.327 C 166.488 252.507,164.687 249.390,164.157 248.400 C 163.627 247.410,163.018 246.330,162.803 246.000 C 161.837 244.511,151.075 226.114,148.646 221.800 C 147.160 219.160,145.578 216.370,145.131 215.600 C 144.684 214.830,142.559 211.140,140.410 207.400 C 138.260 203.660,135.329 198.599,133.895 196.152 C 132.461 193.706,131.403 191.546,131.544 191.352 C 131.685 191.159,137.650 190.996,144.800 190.992 C 162.990 190.980,166.865 190.006,172.900 183.927 C 185.629 171.105,182.311 150.057,166.508 143.380 C 157.969 139.772,156.362 139.620,126.638 139.591 C 100.559 139.565,100.956 139.599,100.042 137.312 C 99.798 136.700,99.251 135.660,98.828 135.000 C 98.404 134.340,97.721 133.170,97.309 132.400 C 96.897 131.630,94.274 127.174,91.480 122.498 C 88.686 117.822,86.400 113.727,86.400 113.398 C 86.400 112.642,155.969 112.483,159.669 113.230 M309.199 113.500 C 309.198 113.885,308.854 114.763,308.434 115.451 C 307.529 116.936,305.365 120.902,302.896 125.600 C 301.914 127.470,300.709 129.720,300.219 130.600 C 299.730 131.480,298.543 133.640,297.583 135.400 C 296.623 137.160,295.559 138.819,295.219 139.087 C 294.318 139.797,218.090 139.796,217.158 139.086 C 216.806 138.817,216.129 137.878,215.654 136.999 C 215.180 136.119,214.477 134.860,214.092 134.200 C 210.498 128.031,202.358 119.081,197.068 115.481 C 195.466 114.391,194.819 113.710,194.806 113.100 C 194.803 112.935,220.540 112.800,252.000 112.800 C 306.210 112.800,309.200 112.837,309.199 113.500 M219.723 179.700 C 219.307 180.415,218.635 181.900,218.230 183.000 C 215.900 189.330,212.214 197.084,209.507 201.351 C 207.274 204.871,204.319 204.586,244.313 204.702 L 279.539 204.804 280.378 203.737 C 280.840 203.150,281.328 202.204,281.462 201.635 C 281.597 201.066,281.919 200.330,282.178 200.000 C 282.436 199.670,283.785 196.700,285.175 193.400 C 289.056 184.186,289.202 183.847,289.609 183.114 C 290.557 181.406,290.749 179.201,289.986 178.792 C 289.523 178.545,276.572 178.400,254.866 178.400 L 220.479 178.400 219.723 179.700 M288.826 179.614 C 289.252 179.842,289.600 180.267,289.600 180.559 C 289.600 181.430,282.180 198.650,280.447 201.800 L 279.347 203.800 246.315 203.902 C 209.894 204.015,210.133 204.028,210.335 201.976 C 210.410 201.219,210.635 200.540,210.837 200.466 C 211.413 200.255,215.302 192.276,217.400 187.000 C 218.449 184.360,219.648 181.525,220.062 180.700 L 220.816 179.200 254.434 179.200 C 276.843 179.200,288.311 179.338,288.826 179.614 M86.000 280.518 L 85.000 281.024 85.000 288.012 L 85.000 295.000 86.124 295.129 C 88.090 295.354,88.400 294.710,88.400 290.394 C 88.400 287.289,88.523 286.438,89.000 286.255 C 89.330 286.129,89.600 286.213,89.600 286.443 C 89.600 287.157,92.498 293.760,93.144 294.518 C 93.624 295.080,94.236 295.210,95.978 295.118 L 98.200 295.000 99.165 293.000 C 99.695 291.900,100.460 290.319,100.865 289.488 C 101.269 288.656,101.600 287.739,101.600 287.450 C 101.600 287.161,101.954 286.604,102.387 286.212 C 103.165 285.508,103.175 285.555,103.287 290.250 L 103.400 295.000 105.000 295.000 L 106.600 295.000 106.709 288.370 C 106.832 280.921,106.721 280.596,103.878 280.135 C 102.228 279.867,100.219 281.034,99.787 282.510 C 99.643 283.000,99.194 284.120,98.789 285.000 C 98.384 285.880,97.600 287.635,97.048 288.900 C 96.162 290.929,95.200 291.923,95.200 290.809 C 95.200 290.594,94.603 289.109,93.872 287.509 C 93.142 285.909,92.209 283.822,91.798 282.871 C 90.615 280.129,88.480 279.263,86.000 280.518 M108.770 280.856 C 107.160 283.864,108.819 294.360,111.000 294.967 C 112.965 295.513,123.413 295.206,124.313 294.576 C 127.308 292.478,127.387 280.000,124.406 280.000 C 122.728 280.000,122.400 280.982,122.400 286.005 C 122.400 291.599,122.637 291.317,117.746 291.531 C 112.410 291.765,112.031 291.176,112.384 283.200 C 112.496 280.671,109.804 278.925,108.770 280.856 M128.649 280.852 C 127.590 282.364,127.691 294.648,128.765 294.989 C 130.846 295.649,142.031 295.296,142.873 294.543 C 146.525 291.277,145.820 282.263,141.800 280.830 C 138.712 279.729,129.424 279.744,128.649 280.852 M152.429 281.100 C 151.777 281.705,150.722 283.190,150.083 284.400 C 148.396 287.597,146.211 291.607,145.352 293.083 C 143.848 295.667,147.133 296.303,149.369 293.861 C 151.287 291.768,159.251 291.756,159.776 293.846 C 160.026 294.844,161.582 295.429,163.500 295.247 C 164.522 295.150,163.916 293.489,160.700 287.568 C 156.528 279.889,155.010 278.702,152.429 281.100 M172.453 280.864 C 171.790 281.926,171.832 294.648,172.500 295.066 C 172.775 295.238,176.137 295.364,179.972 295.346 L 186.944 295.313 187.872 294.234 C 188.919 293.017,189.170 289.781,188.322 288.424 C 187.952 287.831,187.952 287.423,188.322 286.611 C 189.705 283.576,188.313 281.040,184.920 280.413 C 181.163 279.718,172.983 280.015,172.453 280.864 M195.600 280.272 C 191.206 280.957,190.000 282.610,190.000 287.950 C 190.000 294.229,190.906 295.031,198.330 295.326 C 204.237 295.561,206.000 295.230,206.000 293.887 C 206.000 292.058,204.682 291.358,201.715 291.610 C 200.222 291.736,198.100 291.680,197.000 291.484 C 193.933 290.938,193.906 290.923,194.391 290.017 C 194.777 289.296,195.300 289.213,200.108 289.112 C 205.291 289.002,205.403 288.981,205.531 288.078 C 205.791 286.242,205.098 286.000,199.575 286.000 C 194.411 286.000,193.755 285.845,194.411 284.781 C 194.684 284.338,196.029 284.152,200.074 284.000 C 205.968 283.778,207.533 282.960,205.658 281.081 C 204.949 280.371,198.364 279.842,195.600 280.272 M207.579 280.839 C 207.137 281.665,207.071 293.994,207.506 294.629 C 208.696 296.367,211.200 295.398,211.200 293.200 C 211.200 290.029,216.231 290.030,218.701 293.202 C 221.514 296.812,225.438 296.106,222.800 292.463 C 221.349 290.461,221.356 290.588,222.645 289.394 C 224.683 287.505,224.202 282.537,221.831 280.984 C 220.299 279.980,208.105 279.856,207.579 280.839 M225.862 280.731 C 225.302 281.351,225.200 282.487,225.200 288.124 L 225.200 294.785 226.200 295.036 C 228.466 295.604,229.200 294.999,229.200 292.564 C 229.200 287.953,232.096 287.899,235.435 292.448 C 236.914 294.463,239.194 295.898,240.062 295.361 C 240.297 295.216,241.536 295.121,242.815 295.150 C 244.990 295.199,245.206 295.119,246.158 293.901 L 247.177 292.600 251.417 292.600 C 254.758 292.600,255.733 292.727,256.017 293.200 C 256.867 294.616,257.121 294.833,258.321 295.177 C 259.334 295.468,259.766 295.390,260.493 294.783 C 260.992 294.367,261.195 294.021,260.943 294.013 C 260.692 294.006,260.373 293.545,260.233 292.989 C 260.094 292.433,259.462 291.128,258.829 290.089 C 258.196 289.050,256.872 286.692,255.885 284.848 C 253.717 280.795,252.072 279.542,250.030 280.388 C 248.639 280.964,247.376 282.916,243.538 290.427 C 241.578 294.262,241.460 294.277,238.985 291.000 C 237.905 289.570,236.881 288.400,236.710 288.400 C 236.077 288.400,236.447 287.624,238.246 285.180 C 240.785 281.732,241.104 280.530,239.570 280.193 C 238.474 279.953,236.013 281.146,235.993 281.927 C 235.964 283.121,232.301 286.000,230.811 286.000 L 229.200 286.000 229.200 283.889 C 229.200 280.560,227.485 278.938,225.862 280.731 M262.573 280.985 C 262.097 281.711,262.001 283.186,262.090 288.436 L 262.200 294.982 263.288 295.364 C 264.750 295.877,266.000 294.782,266.000 292.987 C 266.000 289.872,271.396 290.025,273.398 293.197 C 274.531 294.992,276.649 295.923,277.980 295.210 C 279.028 294.650,279.028 294.648,277.573 292.623 L 276.347 290.914 277.373 289.401 C 278.209 288.169,278.400 287.416,278.400 285.344 C 278.400 283.349,278.530 282.800,279.000 282.800 C 279.330 282.800,279.600 282.978,279.600 283.195 C 279.600 283.412,280.762 285.161,282.182 287.082 C 284.440 290.135,284.779 290.826,284.882 292.577 C 285.110 296.451,288.419 296.560,288.842 292.709 C 289.074 290.586,291.897 286.103,294.875 283.125 C 296.208 281.792,295.551 280.000,293.729 280.000 C 293.099 280.000,292.331 280.646,291.234 282.100 C 286.859 287.896,287.026 287.813,285.200 285.111 C 282.217 280.698,279.844 279.145,278.663 280.831 C 278.119 281.609,278.005 281.623,276.909 281.057 C 274.693 279.910,263.314 279.854,262.573 280.985 M300.474 280.923 C 299.170 281.785,298.357 283.089,294.514 290.484 C 292.489 294.379,292.496 295.200,294.552 295.200 C 295.614 295.200,296.179 294.903,297.019 293.904 C 298.777 291.815,306.727 291.879,307.396 293.987 C 307.662 294.827,310.047 295.710,311.030 295.333 C 311.647 295.096,311.821 292.984,311.252 292.632 C 311.061 292.514,310.056 290.749,309.019 288.709 C 304.530 279.882,303.486 278.931,300.474 280.923 M111.242 284.471 C 111.090 291.821,111.661 292.518,117.680 292.334 C 123.356 292.161,123.310 292.213,123.128 286.096 C 122.989 281.435,123.506 280.146,124.937 281.577 C 125.522 282.162,125.378 291.720,124.768 292.860 C 123.264 295.671,111.238 295.581,109.773 292.749 C 108.851 290.966,108.956 281.314,109.900 281.098 C 111.071 280.830,111.305 281.419,111.242 284.471 M185.839 281.411 C 187.749 281.723,188.592 284.263,187.547 286.557 C 187.189 287.342,187.230 287.891,187.740 289.166 C 189.495 293.552,187.519 294.833,179.200 294.699 L 173.000 294.600 172.890 287.931 C 172.793 281.981,172.853 281.248,173.446 281.131 C 174.393 280.944,184.357 281.169,185.839 281.411 M228.400 283.538 C 228.400 286.273,229.065 286.971,231.557 286.847 C 232.406 286.805,234.543 284.875,236.964 281.964 C 237.639 281.153,239.600 280.905,239.600 281.630 C 239.600 281.867,238.790 283.113,237.800 284.400 C 235.567 287.301,235.560 287.997,237.738 290.557 C 240.165 293.410,240.623 294.340,239.763 294.670 C 238.810 295.035,238.082 294.476,235.725 291.564 C 233.976 289.403,233.410 288.966,232.125 288.787 C 229.217 288.380,228.610 289.082,228.304 293.200 C 228.215 294.399,228.056 294.600,227.200 294.600 L 226.200 294.600 226.090 288.253 C 225.972 281.490,226.201 280.452,227.642 281.222 C 228.223 281.534,228.400 282.073,228.400 283.538 M303.132 281.236 C 304.405 281.680,305.770 283.652,307.954 288.200 C 308.482 289.300,309.023 290.290,309.157 290.400 C 309.817 290.943,311.130 294.230,310.814 294.546 C 310.246 295.114,308.477 294.473,308.200 293.599 C 307.782 292.282,306.477 291.902,302.093 291.820 L 297.924 291.741 296.695 293.271 C 294.438 296.079,292.947 295.075,294.636 291.884 C 297.650 286.187,298.252 285.044,298.883 283.814 C 299.420 282.769,301.322 280.800,301.794 280.800 C 301.842 280.800,302.444 280.996,303.132 281.236 M91.677 284.400 C 92.489 286.050,93.345 288.052,93.578 288.848 C 94.602 292.338,96.643 293.074,97.361 290.212 C 97.489 289.701,98.226 287.935,98.997 286.288 C 99.769 284.640,100.400 283.151,100.400 282.978 C 100.400 281.581,103.987 280.569,105.511 281.536 C 106.487 282.156,106.001 294.600,105.000 294.600 C 104.253 294.600,104.187 294.267,104.000 289.532 C 103.890 286.744,103.656 284.320,103.481 284.146 C 102.922 283.590,101.882 284.595,101.331 286.223 C 101.038 287.090,100.629 288.160,100.421 288.600 C 100.214 289.040,99.654 290.300,99.177 291.400 C 96.480 297.624,94.118 296.315,90.296 286.480 C 88.474 281.792,87.649 282.714,87.505 289.600 L 87.400 294.600 86.400 294.600 L 85.400 294.600 85.289 288.694 C 85.153 281.427,85.272 281.115,88.125 281.280 L 90.200 281.400 91.677 284.400 M142.697 282.106 C 145.043 284.231,144.927 291.413,142.510 293.686 C 141.582 294.558,141.248 294.600,135.269 294.600 L 129.000 294.600 128.889 288.417 C 128.828 285.016,128.874 281.985,128.990 281.682 C 129.339 280.772,141.645 281.153,142.697 282.106 M156.181 281.448 C 156.537 281.585,157.149 282.350,157.542 283.148 C 158.571 285.243,161.973 291.586,162.845 293.039 C 163.674 294.418,163.517 294.800,162.120 294.800 C 161.469 294.800,160.925 294.379,160.379 293.455 C 159.504 291.971,158.003 291.597,153.000 291.616 C 150.445 291.626,149.762 291.951,148.624 293.700 C 147.843 294.900,146.000 295.255,146.000 294.206 C 146.000 293.388,151.465 283.211,152.501 282.100 C 153.323 281.217,154.867 280.944,156.181 281.448 M205.057 281.805 C 205.596 283.209,204.517 283.553,199.518 283.571 C 194.282 283.589,193.482 283.863,193.680 285.566 L 193.800 286.600 199.200 286.800 C 204.228 286.986,204.600 287.054,204.600 287.784 C 204.600 288.513,204.252 288.577,199.600 288.705 C 193.681 288.868,193.600 288.888,193.600 290.178 C 193.600 291.936,194.948 292.409,200.245 292.510 L 205.000 292.600 205.000 293.600 L 205.000 294.600 200.290 294.713 C 192.194 294.907,191.138 294.202,190.897 288.449 C 190.734 284.568,191.404 282.609,193.200 281.711 C 194.762 280.931,204.752 281.010,205.057 281.805 M222.181 282.200 C 223.624 284.082,223.421 287.728,221.786 289.279 C 220.539 290.461,220.556 290.735,221.989 292.629 C 223.469 294.584,223.477 294.800,222.070 294.800 C 220.930 294.800,219.706 293.788,218.864 292.152 C 217.306 289.124,210.098 289.389,210.670 292.453 C 210.923 293.808,209.960 294.968,208.870 294.622 C 208.023 294.353,208.000 294.171,208.000 287.747 L 208.000 281.147 214.784 281.274 C 221.014 281.390,221.617 281.465,222.181 282.200 M254.629 284.200 C 259.992 293.401,260.429 294.437,259.072 294.718 C 258.609 294.815,257.864 294.313,257.018 293.335 L 255.691 291.800 251.205 291.800 L 246.719 291.800 245.459 293.300 C 244.268 294.719,243.097 295.204,242.642 294.468 C 242.529 294.286,243.144 292.801,244.008 291.168 C 244.872 289.536,246.168 287.053,246.889 285.651 C 249.801 279.991,251.941 279.589,254.629 284.200 M276.620 282.023 C 278.014 283.562,277.935 287.591,276.479 289.249 L 275.273 290.622 276.437 292.182 C 277.853 294.082,277.908 294.800,276.636 294.800 C 275.737 294.800,273.600 292.830,273.600 292.002 C 273.600 291.167,270.908 290.087,268.726 290.047 C 266.073 289.998,265.203 290.609,265.194 292.529 C 265.186 294.166,264.696 294.916,263.752 294.734 C 263.015 294.593,262.346 283.361,262.977 281.717 C 263.356 280.727,275.699 281.004,276.620 282.023 M282.476 282.716 C 283.229 283.549,284.436 285.089,285.158 286.138 C 286.852 288.601,287.223 288.487,290.186 284.603 C 292.524 281.537,293.664 280.704,294.449 281.489 C 294.800 281.840,294.405 282.440,290.124 288.066 C 288.688 289.954,288.400 290.631,288.400 292.117 C 288.400 295.704,285.997 295.692,285.549 292.102 C 285.346 290.476,284.848 289.488,282.948 286.945 C 278.870 281.489,278.729 281.200,280.153 281.200 C 280.749 281.200,281.620 281.768,282.476 282.716 M211.144 283.523 C 210.141 284.227,210.134 286.835,211.131 287.738 C 212.039 288.560,219.134 288.706,219.920 287.920 C 220.554 287.286,220.537 284.212,219.896 283.680 C 219.106 283.024,212.034 282.897,211.144 283.523 M132.100 283.594 C 131.266 283.946,131.200 284.226,131.200 287.413 C 131.200 292.380,131.219 292.400,135.939 292.400 C 141.127 292.400,141.600 292.017,141.600 287.813 C 141.600 284.089,141.192 283.602,138.071 283.596 C 136.822 283.593,135.170 283.506,134.400 283.402 C 133.630 283.298,132.595 283.385,132.100 283.594 M177.200 283.567 C 175.160 283.831,174.443 285.257,175.838 286.278 C 177.638 287.593,184.900 286.876,185.286 285.344 C 185.708 283.673,182.255 282.915,177.200 283.567 M265.680 283.680 C 264.991 284.369,265.088 287.031,265.829 287.771 C 266.310 288.253,267.331 288.400,270.200 288.400 C 274.512 288.400,275.200 288.022,275.200 285.651 C 275.200 283.418,274.755 283.200,270.200 283.200 C 267.591 283.200,265.990 283.370,265.680 283.680 M219.818 284.856 C 220.543 287.140,219.881 287.600,215.872 287.600 C 211.746 287.600,211.200 287.338,211.200 285.353 C 211.200 283.760,211.160 283.772,215.773 283.927 C 219.155 284.040,219.591 284.140,219.818 284.856 M300.381 286.242 C 298.738 289.828,298.822 290.000,302.200 290.000 C 305.531 290.000,305.854 289.368,304.203 286.080 C 302.681 283.050,301.826 283.086,300.381 286.242 M140.084 284.545 C 141.147 285.353,141.241 290.288,140.207 291.044 C 139.105 291.850,133.074 291.812,132.396 290.995 C 131.874 290.366,132.004 285.364,132.566 284.455 C 132.968 283.805,139.209 283.880,140.084 284.545 M152.489 286.660 C 150.931 289.946,150.966 290.000,154.624 290.000 C 157.929 290.000,158.302 289.571,157.003 287.262 C 156.674 286.678,156.229 285.705,156.013 285.100 C 155.271 283.023,153.933 283.615,152.489 286.660 M184.600 285.000 C 184.600 285.738,184.295 285.809,180.635 285.915 C 176.607 286.032,175.696 285.769,176.140 284.613 C 176.556 283.527,184.600 283.896,184.600 285.000 M249.419 286.128 C 247.905 289.120,248.103 289.768,250.577 289.925 C 254.660 290.184,255.122 289.542,253.258 286.200 C 251.689 283.386,250.814 283.370,249.419 286.128 M274.408 284.815 C 275.542 286.933,274.180 287.703,269.627 287.519 C 266.532 287.395,265.429 286.465,266.150 284.587 C 266.546 283.555,273.841 283.756,274.408 284.815 M155.614 286.100 C 157.429 289.040,157.211 289.771,154.637 289.385 C 152.539 289.070,152.348 288.541,153.500 286.226 C 154.367 284.483,154.608 284.469,155.614 286.100 M252.697 286.700 C 253.768 288.767,253.504 289.200,251.167 289.200 C 248.959 289.200,248.858 289.005,249.900 286.741 C 250.791 284.805,251.708 284.792,252.697 286.700 M303.772 286.846 C 304.627 288.783,304.307 289.184,301.900 289.194 C 300.152 289.201,299.941 288.471,301.100 286.435 C 302.057 284.754,302.907 284.885,303.772 286.846 M175.225 289.700 C 174.490 291.596,175.488 292.187,179.648 292.317 C 185.063 292.487,186.020 292.029,185.153 289.685 C 184.641 288.301,175.763 288.314,175.225 289.700 M184.475 289.891 C 185.366 290.964,183.812 291.600,180.297 291.600 C 176.482 291.600,175.199 291.106,176.186 290.016 C 177.061 289.049,183.694 288.949,184.475 289.891 " stroke="none" fill="#a0a1a8" fill-rule="evenodd"></path></g></svg>